<?xml version="1.0" ?><svg enable-background="new 0 0 512 512" id="Layer_1" version="1.1" viewBox="0 0 512 512" xml:space="preserve" xmlns="http://www.w3.org/2000/svg" xmlns:xlink="http://www.w3.org/1999/xlink"><path d="M256,448.5L143.2,335.8c-62.3-62.3-62.3-163.3,0-225.6l0,0c62.3-62.3,163.3-62.3,225.6,0l0,0  c62.3,62.3,62.3,163.3,0,225.6L256,448.5z" fill="#00A5C5"/><linearGradient gradientUnits="userSpaceOnUse" id="SVGID_1_" x1="255.9641" x2="255.9641" y1="70.1562" y2="439.0671"><stop offset="0" style="stop-color:#FFFFFF;stop-opacity:0"/><stop offset="1" style="stop-color:#FFFFFF"/></linearGradient><path d="M147.9,331c-28.9-28.9-44.8-67.2-44.8-108.1s15.9-79.2,44.8-108.1c28.9-28.9,67.2-44.8,108.1-44.8  s79.2,15.9,108.1,44.8c59.6,59.6,59.6,156.5,0,216.1L256,439.1L147.9,331z" fill="url(#SVGID_1_)"/><path d="M256,90c-68.9,0-124.8,55.9-124.8,124.8h249.6C380.8,145.9,324.9,90,256,90z" fill="#FF2929"/><linearGradient gradientUnits="userSpaceOnUse" id="SVGID_2_" x1="256" x2="256" y1="214.8125" y2="99.2981"><stop offset="0" style="stop-color:#FFFFFF;stop-opacity:0"/><stop offset="1" style="stop-color:#FFFFFF"/></linearGradient><path d="M256,99.3c-63.8,0-115.5,51.7-115.5,115.5h231C371.5,151,319.8,99.3,256,99.3z" fill="url(#SVGID_2_)"/><path d="M256,339.6c-68.9,0-124.8-55.9-124.8-124.8h249.6C380.8,283.7,324.9,339.6,256,339.6z" fill="#D1D3D4"/><linearGradient gradientUnits="userSpaceOnUse" id="SVGID_3_" x1="256" x2="256" y1="214.8125" y2="330.3269"><stop offset="0" style="stop-color:#FFFFFF;stop-opacity:0"/><stop offset="1" style="stop-color:#FFFFFF"/></linearGradient><path d="M256,330.3c-63.8,0-115.5-51.7-115.5-115.5h231C371.5,278.6,319.8,330.3,256,330.3z" fill="url(#SVGID_3_)"/><path d="M380.6,208.1H131.4c-0.1,2.2-0.2,4.5-0.2,6.7s0.1,4.5,0.2,6.7h249.2c0.1-2.2,0.2-4.5,0.2-6.7  S380.7,210.3,380.6,208.1z" fill="#FFFFFF"/><circle cx="256" cy="214.8" fill="#F5F5F5" r="33.4"/><circle cx="256" cy="214.8" fill="#FF2929" r="22.7"/><linearGradient gradientUnits="userSpaceOnUse" id="SVGID_4_" x1="256" x2="256" y1="237.5402" y2="192.0848"><stop offset="0" style="stop-color:#FFFFFF;stop-opacity:0"/><stop offset="1" style="stop-color:#FFFFFF;stop-opacity:0.5"/></linearGradient><circle cx="256" cy="214.8" fill="url(#SVGID_4_)" r="22.7"/></svg>